<svg width="1440" height="1107" viewBox="0 0 1440 1107" fill="none" xmlns="http://www.w3.org/2000/svg">
<path opacity="0.3" d="M-68 227.5C210.408 117.655 409.556 -123.771 613 79.5C613 79.5 884 388 1029 287.5C1174 187 1443.5 87 1443.5 87H1631L1646 865L-68 891V227.5Z" fill="#D9DDDC"/>
<path opacity="0.3" d="M-84 295.806C194.408 185.962 393.556 -55.4649 597 147.806C597 147.806 868 456.306 1013 355.806C1158 255.306 1427.5 155.306 1427.5 155.306H1615L1630 933.306L-84 959.306V295.806Z" fill="#D9DDDC"/>
<path opacity="0.3" d="M-84 361.806C194.408 251.962 393.556 10.5351 597 213.806C597 213.806 868 522.306 1013 421.806C1158 321.306 1427.5 221.306 1427.5 221.306H1615L1630 999.306L-84 1025.31V361.806Z" fill="#D9DDDC"/>
<rect y="818" width="1475" height="289" fill="#E6E9E9"/>
</svg>
